<svg width="24" height="24" viewBox="0 0 24 24" fill="none" xmlns="http://www.w3.org/2000/svg">
  <path d="M12 24C18.6274 24 24 18.6274 24 12C24 5.37258 18.6274 0 12 0C5.37258 0 0 5.37258 0 12C0 18.6274 5.37258 24 12 24Z" fill="#F7931A"/>
  <path d="M17.3903 10.5789C17.6071 8.92284 16.3153 8.0481 14.5315 7.46747L15.0942 5.25284L13.7574 4.91684L13.2105 7.07305C12.8745 6.98747 12.5274 6.90747 12.1821 6.82863L12.7337 4.65347L11.3981 4.31747L10.8348 6.53095C10.5527 6.46642 10.2764 6.40421 10.0095 6.33747L10.0108 6.33158L8.19387 5.87621L7.83366 7.31179C7.83366 7.31179 8.82082 7.53726 8.79713 7.55495C9.33713 7.68505 9.43629 8.03874 9.41629 8.31874L8.77713 10.8587C8.81713 10.8693 8.86955 10.8847 8.92829 10.9087L8.77503 10.8681L7.87503 14.4347C7.80924 14.5929 7.64292 14.8341 7.26713 14.7435C7.28292 14.7671 6.30292 14.4981 6.30292 14.4981L5.62292 15.9935L7.34292 16.4241C7.65292 16.5035 7.95608 16.5881 8.25397 16.6675L7.68503 18.9081L9.01924 19.2441L9.58187 17.0295C9.93082 17.1241 10.2691 17.2121 10.5997 17.2947L10.0397 19.4987L11.3765 19.8347L11.9454 17.6001C14.3245 18.0387 16.1288 17.8601 16.9565 15.7161C17.6245 14.0001 16.9565 13.0121 15.6805 12.3841C16.6245 12.1641 17.3245 11.5841 17.3903 10.5789ZM14.3997 14.8241C13.9245 16.5401 11.0108 15.6481 10.0691 15.4001L10.8245 12.4681C11.7662 12.7175 14.8997 13.0241 14.3997 14.8241ZM14.8765 10.5535C14.4397 12.1135 12.0245 11.3535 11.2397 11.1441L11.9245 8.48211C12.7093 8.69147 15.3357 8.92284 14.8765 10.5535Z" fill="white"/>
</svg> 