<svg xmlns="http://www.w3.org/2000/svg" width="24" height="24" viewBox="0 0 24 24" fill="currentColor"><path d="M20.252 2.006c-1.242-.71-2.637-1.006-4.036-1.006-3.791 0-7.009 1.481-9.613 4.417l-.095.127-.101.127c-2.458 3.076-3.832 6.556-4.045 10.228-.016.27-.008.541.02.81.086.786.376 1.558.857 2.296.39.596.883 1.157 1.465 1.677.37.332.748.653 1.132.964.39.317.788.625 1.192.923.004.004.008.008.013.012l.065.048.065.048.077.056c.11.077.225.148.34.218l.08.046.081.046c.451.258.91.498 1.378.718l.067.032.067.032.083.037c.18.079.362.152.548.218l.082.028.082.027.098.026c.465.118.934.22 1.408.304l.056.01.056.01.096.008c.088.004.177.004.266.004.476 0 .95.008 1.423-.004l.088-.008.089-.008.098-.012c.118-.013.236-.026.354-.042l.09-.012.089-.012.09-.015c.44-.075.876-.164 1.306-.264l.07-.018.07-.018.081-.023c.18-.052.359-.108.536-.168l.08-.027.08-.027c.43-.15.85-.316 1.254-.5.064-.029.128-.058.19-.089l.06-.03.06-.03.071-.038c.174-.095.345-.194.513-.298l.064-.04.064-.04.072-.045c.142-.093.283-.189.418-.289.067-.049.133-.099.198-.15l.06-.046.06-.046c.32-.249.63-.506.924-.77.054-.048.108-.095.161-.143.255-.23.504-.467.742-.71.1-.1.207-.21.31-.318l.05-.052.05-.052c.205-.213.4-.43.59-.652.046-.053.09-.106.134-.16l.042-.05.042-.05c.16-.192.316-.388.468-.588.038-.05.075-.1.112-.15.14-.18.27-.365.394-.553.03-.046.06-.09.088-.135.106-.17.206-.343.3-.518.024-.04.048-.08.07-.122.084-.149.163-.3.237-.453.018-.035.035-.07.052-.105.064-.13.123-.263.176-.398.014-.035.027-.069.04-.103.045-.125.086-.25.123-.375.01-.03.019-.06.028-.09.034-.1.065-.2.093-.3l.003-.01c.002-.007.003-.014.005-.02.023-.082.043-.165.059-.247.01-.046.018-.092.025-.138.006-.05.01-.1.015-.15.003-.03.006-.06.008-.09.01-.102.016-.204.019-.306.002-.047.004-.095.004-.142-.008-3.085-1.121-6.046-3.138-8.599zm-4.475 14.385c-1.397 0-2.529-1.298-2.529-2.899 0-1.602 1.132-2.9 2.529-2.9 1.396 0 2.529 1.298 2.529 2.9 0 1.601-1.133 2.899-2.529 2.899zm-6.299 0c-1.397 0-2.529-1.298-2.529-2.899 0-1.602 1.132-2.9 2.529-2.9 1.397 0 2.529 1.298 2.529 2.9 0 1.601-1.132 2.899-2.529 2.899z"/></svg>