<svg width="24" height="24" viewBox="0 0 24 24" fill="none" xmlns="http://www.w3.org/2000/svg">
  <path d="M22 7L14.1314 14.8686C13.7354 15.2646 13.2471 15.5777 12.7056 15.7869C12.1641 15.9961 11.5821 16.0968 10.9938 16.0827C10.4055 16.0687 9.82902 15.9402 9.29917 15.7049C8.76932 15.4696 8.29814 15.1328 7.92157 14.7172C7.54499 14.3017 7.27074 13.8111 7.10303 13.2809C6.93532 12.7507 6.87792 12.1931 6.93414 11.6419C6.99036 11.0908 7.15906 10.5547 7.43042 10.0663C7.70178 9.57795 8.07093 9.14755 8.51472 8.80286" stroke="#6EE7FF" stroke-width="2" stroke-linecap="round" stroke-linejoin="round"/>
  <path d="M2 17L9.86863 9.13137C10.2646 8.73535 10.7529 8.42225 11.2944 8.21307C11.8359 8.00389 12.4179 7.90321 13.0062 7.91726C13.5945 7.93132 14.171 8.05985 14.7008 8.29512C15.2307 8.53039 15.7019 8.86716 16.0784 9.28273C16.455 9.69831 16.7293 10.1889 16.897 10.7191C17.0647 11.2493 17.1221 11.8069 17.0659 12.3581C17.0096 12.9092 16.8409 13.4453 16.5696 13.9337C16.2982 14.422 15.9291 14.8524 15.4853 15.1971" stroke="#6EE7FF" stroke-width="2" stroke-linecap="round" stroke-linejoin="round"/>
</svg> 